<?xml version="1.0" encoding="UTF-8"?>
<svg version="1.1" xmlns="http://www.w3.org/2000/svg" width="1563" height="1563">
<path d="M0 0 C2.32938041 0.0054524 4.65875062 0.00781135 6.98813629 0.00987244 C30.52922756 0.04229031 53.92336977 0.59839784 77.34989166 3.09324646 C79.47109817 3.31737762 81.59318982 3.52993931 83.71585846 3.73973083 C131.46903121 8.51358938 178.74871974 18.86316274 224.47562408 33.31785583 C225.1710733 33.53741943 225.86652252 33.75698303 226.58304596 33.98320007 C264.13608075 45.87535496 300.09707915 61.01319758 335.47562408 78.31785583 C336.79554352 78.95739197 336.79554352 78.95739197 338.14212799 79.60984802 C366.43716968 93.32503064 393.55870092 109.53018883 419.47562408 127.31785583 C420.25969635 127.8534613 421.04376862 128.38906677 421.85160065 128.94090271 C440.72328039 141.86381884 458.88525992 155.70138499 476.47562408 170.31785583 C477.34888336 171.04247009 477.34888336 171.04247009 478.23978424 171.78172302 C484.8865383 177.31221394 491.38705794 182.97068832 497.74515533 188.83348083 C499.82694451 190.72764094 501.93126166 192.56858524 504.06595612 194.40110779 C508.82750587 198.56452792 513.29528628 202.99356943 517.76078033 207.47019958 C518.62070084 208.32916336 519.48062134 209.18812714 520.36660004 210.07312012 C522.1737827 211.87962598 523.979718 213.68738045 525.78446198 215.49632263 C528.53000801 218.24722393 531.28084954 220.99274804 534.03226471 223.73777771 C535.79625728 225.50243115 537.55993959 227.2673948 539.32328033 229.03269958 C540.54386894 230.25025185 540.54386894 230.25025185 541.78911591 231.49240112 C546.553572 236.27624872 551.08026408 241.19448444 555.47562408 246.31785583 C556.93007926 247.92553956 558.38783303 249.53025298 559.85062408 251.13035583 C563.67159547 255.36874426 567.3180974 259.71664687 570.90531158 264.15379333 C572.82742869 266.53070394 574.77527677 268.88461526 576.73343658 271.23191833 C584.62807244 280.70943857 592.1928569 290.36326282 599.47562408 300.31785583 C600.01074615 301.04649841 600.54586823 301.77514099 601.09720612 302.52586365 C625.63128408 335.98207915 646.51771637 371.45334881 665.47562408 408.31785583 C665.84929108 409.04182556 666.22295807 409.76579529 666.6079483 410.51170349 C688.82854937 453.68710787 705.66486084 499.52798837 718.47562408 546.31785583 C718.65524689 546.97340454 718.83486969 547.62895325 719.01993561 548.30436707 C728.35752042 582.5539436 735.16466387 617.61614977 739.1969986 652.88621521 C739.38487844 654.52589384 739.57590677 656.16521437 739.76987457 657.80418396 C746.31259313 713.2236059 746.22216827 770.92624061 739.47562408 826.31785583 C739.36671844 827.22205261 739.25781281 828.12624939 739.14560699 829.05784607 C729.87488438 905.37560846 709.51141705 981.03956624 664.47562408 1075.31785583 C663.86997817 1076.53171583 663.26434625 1077.74558282 662.65872955 1078.9594574 C654.01185684 1096.21458994 644.54641145 1112.86331269 634.47562408 1129.31785583 C633.93695709 1130.19909119 633.3982901 1131.08032654 632.84329987 1131.98826599 C615.33907915 1160.47971679 595.82404973 1187.81610003 574.08890533 1213.23582458 C571.68481096 1216.05420613 569.35794414 1218.92957537 567.03812408 1221.81785583 C563.17172241 1226.57276633 559.09033541 1231.08447228 554.89969635 1235.55223083 C552.31544066 1238.30877023 549.79391315 1241.09943456 547.3332901 1243.9672699 C543.3257399 1248.55499311 539.07252528 1252.86510248 534.76078033 1257.16551208 C533.94620865 1257.9810405 533.13163696 1258.79656891 532.29238129 1259.6368103 C530.58003216 1261.34983592 528.86643566 1263.06161549 527.15164948 1264.77220154 C524.54560393 1267.37289136 521.94493886 1269.9788754 519.34476471 1272.58543396 C517.67125709 1274.2582807 515.99743926 1275.93081717 514.32328033 1277.60301208 C513.55532639 1278.37299026 512.78737244 1279.14296844 511.99614716 1279.9362793 C507.31439174 1284.5980268 502.48583469 1289.01310176 497.47562408 1293.31785583 C495.86794036 1294.77231101 494.26322694 1296.23006478 492.66312408 1297.69285583 C488.3395047 1301.59465869 483.88819957 1305.29934082 479.35843658 1308.95848083 C476.90119337 1310.96955794 474.49105349 1313.02404663 472.09134674 1315.10301208 C462.93192983 1323.00412494 453.21660013 1330.15565026 443.47562408 1337.31785583 C442.30410797 1338.18144714 442.30410797 1338.18144714 441.10892487 1339.06248474 C430.11536266 1347.14854214 418.92022791 1354.8841538 407.47562408 1362.31785583 C406.73264069 1362.80077087 405.98965729 1363.28368591 405.22415924 1363.78123474 C383.33687614 1377.94248185 360.71722203 1390.5277369 337.47562408 1402.31785583 C336.00263898 1403.07372575 334.52993536 1403.83014474 333.05765533 1404.58738708 C329.22135809 1406.5490361 325.35834121 1408.44989119 321.47562408 1410.31785583 C320.67350494 1410.70441345 319.8713858 1411.09097107 319.04496002 1411.48924255 C291.34315033 1424.73548341 262.64813309 1435.78023785 233.47562408 1445.31785583 C231.60438873 1445.93588074 231.60438873 1445.93588074 229.69535065 1446.56639099 C173.22098181 1465.16776886 114.73168861 1475.91428247 55.47562408 1480.31785583 C54.49678253 1480.40004364 53.51794098 1480.48223145 52.50943756 1480.56690979 C43.19874832 1481.30716685 33.93334598 1481.49781679 24.60062408 1481.52098083 C23.8113855 1481.52380821 23.02214691 1481.52663559 22.208992 1481.52954865 C18.00896643 1481.54444559 13.80897418 1481.55372751 9.60892487 1481.55809021 C6.22957978 1481.56241746 2.85049832 1481.57609565 -0.52877045 1481.59910583 C-31.43313578 1481.80498174 -62.14088152 1480.30952736 -92.77437592 1476.00535583 C-93.53568817 1475.90147552 -94.29700043 1475.79759521 -95.08138275 1475.69056702 C-123.59722024 1471.79618781 -151.61783999 1466.34651111 -179.52437592 1459.31785583 C-181.28733002 1458.87506287 -181.28733002 1458.87506287 -183.08589935 1458.42332458 C-200.13033106 1454.09426626 -216.84275145 1448.86964182 -233.52437592 1443.31785583 C-235.11620697 1442.79651062 -235.11620697 1442.79651062 -236.74019623 1442.26463318 C-269.10901897 1431.64471578 -300.78520365 1418.14597296 -331.07711029 1402.57029724 C-334.06855162 1401.03936208 -337.0705333 1399.52974534 -340.07125092 1398.01707458 C-356.32055638 1389.78959388 -372.0681777 1380.97340219 -387.52437592 1371.31785583 C-389.11838226 1370.32519714 -389.11838226 1370.32519714 -390.74459076 1369.31248474 C-403.59557799 1361.28085831 -416.16817143 1352.9833355 -428.33101654 1343.94187927 C-430.64018976 1342.23210408 -432.96349621 1340.543023 -435.29000092 1338.85691833 C-445.03599013 1331.77310962 -454.50898195 1324.43556108 -463.78755951 1316.75047302 C-466.28671997 1314.68903451 -468.81482963 1312.66368877 -471.33687592 1310.63035583 C-476.02935138 1306.79041721 -480.51483108 1302.75327418 -484.97750092 1298.64988708 C-487.1137934 1296.69380332 -489.27218249 1294.77597886 -491.46187592 1292.88035583 C-502.55542247 1283.20014132 -513.03186892 1272.9683186 -523.42598724 1262.5466156 C-525.84632118 1260.12088953 -528.27199812 1257.70059786 -530.69820404 1255.28074646 C-532.26167604 1253.71661409 -533.82483804 1252.15217178 -535.38765717 1250.58738708 C-536.10133957 1249.87572891 -536.81502197 1249.16407074 -537.55033112 1248.43084717 C-541.54079674 1244.42192396 -545.36045321 1240.31638737 -549.05106354 1236.02928162 C-550.95741935 1233.8148249 -552.92792415 1231.66186725 -554.89937592 1229.50535583 C-558.7235207 1225.26344733 -562.37327047 1220.91234487 -565.96187592 1216.47019958 C-567.85458504 1214.12925703 -569.77687767 1211.81536372 -571.71187592 1209.50926208 C-580.43059584 1199.09005192 -588.60192781 1188.35285945 -596.52437592 1177.31785583 C-597.05837006 1176.5747113 -597.5923642 1175.83156677 -598.14253998 1175.06590271 C-621.30213263 1142.74285514 -641.74237127 1108.73297688 -659.5797348 1073.19743347 C-660.51773048 1071.33107843 -661.46038876 1069.46713773 -662.40377045 1067.60350037 C-695.83587229 1001.39764455 -718.08259093 929.13998193 -733.52437592 826.31785583 C-733.63199249 825.43428406 -733.73960907 824.55071228 -733.85048676 823.6403656 C-740.49861863 768.34962486 -740.25540342 710.58207342 -733.52437592 655.31785583 C-733.41547028 654.41365906 -733.30656464 653.50946228 -733.19435883 652.5778656 C-723.87552882 575.86407713 -702.79290408 501.36603458 -648.96285248 387.89793396 C-647.49049946 385.2570944 -646.06085896 382.59692672 -644.64156342 379.92723083 C-625.9154868 344.78488823 -603.08993264 310.28957478 -577.51656342 279.70457458 C-575.5579041 277.35802391 -573.66357466 274.97050901 -571.77437592 272.56785583 C-563.66717112 262.41370271 -554.99681591 252.71529514 -546.15718842 243.19676208 C-544.20631703 241.06353922 -542.31316932 238.91078359 -540.43184662 236.71824646 C-536.27193588 231.95941713 -531.84557262 227.49511162 -527.37203217 223.03269958 C-526.51306839 222.17277908 -525.65410461 221.31285858 -524.76911163 220.42687988 C-522.96260577 218.61969722 -521.1548513 216.81376192 -519.34590912 215.00901794 C-516.59500782 212.26347191 -513.84948371 209.51263038 -511.10445404 206.76121521 C-509.3398006 204.99722264 -507.57483695 203.23354033 -505.80953217 201.47019958 C-504.99783066 200.65647385 -504.18612915 199.84274811 -503.34983063 199.00436401 C-498.5668048 194.24072636 -493.66009028 189.69809298 -488.52437592 185.31785583 C-487.44175894 184.37972927 -486.35962736 183.44104181 -485.27828217 182.50144958 C-469.80365196 169.15801261 -453.99529013 156.41601846 -437.52437592 144.31785583 C-436.73321381 143.73584412 -435.9420517 143.1538324 -435.12691498 142.55418396 C-425.10476921 135.19932313 -414.96530708 128.06619993 -404.52437592 121.31785583 C-403.8176474 120.86088318 -403.11091888 120.40391052 -402.38277435 119.93309021 C-335.53047057 76.87962398 -262.73949289 44.06327723 -62.52437592 2.31785583 C-60.84482315 2.18054802 -60.84482315 2.18054802 -59.13134003 2.04046631 C-39.40150263 0.470347 -19.78507591 -0.04825384 0 0 Z " fill="#000000" transform="translate(778.5243759155273,40.68214416503906)"/>
<path d="M0 0 C1.01762924 0.00131424 1.01762924 0.00131424 2.05581665 0.00265503 C13.74310066 0.05220721 24.74606454 1.09191474 36 4.375 C36.81968262 4.61105957 37.63936523 4.84711914 38.48388672 5.09033203 C58.8464427 11.15336223 76.46505594 21.42081352 92.03617859 35.85397053 C92.59914412 36.37511734 93.16210966 36.89626416 93.74213475 37.4332033 C100.00280892 43.26218594 106.06137891 49.28774586 112.10864258 55.33647156 C113.37416118 56.59868043 114.63988857 57.86067999 115.90580368 59.12249118 C119.3464777 62.55326562 122.78410625 65.9870768 126.22116971 69.4214679 C129.94258533 73.13894502 133.66681559 76.85360081 137.39060974 80.56869507 C146.35565406 89.51408993 155.31595361 98.46423003 164.27563667 107.41499421 C168.5015322 111.63649406 172.72791103 115.85751 176.95422363 120.0785923 C191.00812911 134.11550867 205.06078894 148.15367033 219.10983276 162.19545269 C222.74525009 165.8289604 226.3806728 169.46246272 230.01611328 173.09594727 C230.91958771 173.99893796 231.82306215 174.90192865 232.75391459 175.8322827 C247.41864082 190.48869263 262.09187571 205.13655334 276.76864707 219.78090038 C291.85432021 234.83351784 306.93246742 249.89364056 322.00322056 264.96119624 C330.45847932 273.4142902 338.9169991 281.86406369 347.38394165 290.30545616 C354.58612508 297.48595438 361.78147006 304.67321709 368.967951 311.86943229 C372.63340468 315.53943482 376.3020192 319.2061238 379.97942924 322.86414909 C383.34696586 326.21408679 386.70510139 329.57316106 390.05606115 332.93967829 C391.26827608 334.154274 392.48386674 335.36551217 393.70318663 336.57297512 C402.93522534 345.72078886 411.14555596 354.79580311 411.4375 368.5 C411.26319772 378.69087347 407.00369772 387.99365192 400 395.375 C393.35564635 401.36118654 385.85888484 403.83694872 376.97045898 403.76940918 C375.81945237 403.77854584 375.81945237 403.77854584 374.6451931 403.78786707 C372.09533922 403.80440467 369.54598981 403.79973452 366.99609375 403.79492188 C365.1588235 403.80226794 363.32155787 403.81085573 361.48429871 403.82058716 C356.50654312 403.8427643 351.52895329 403.84573544 346.55115509 403.84383965 C342.38435153 403.84371968 338.21758273 403.85229521 334.05078888 403.86061716 C324.2091285 403.87984059 314.36755292 403.88274018 304.52587891 403.87597656 C294.40573242 403.86934868 284.28595161 403.89215215 274.16587925 403.92929029 C265.45299221 403.96009298 256.74022209 403.97133554 248.02728176 403.96745348 C242.83447187 403.9653955 237.64194611 403.97071604 232.44918823 403.99534607 C227.55701345 404.01778354 222.66542733 404.01559556 217.77324867 403.99541855 C215.99001918 403.99203744 214.20674875 403.99697048 212.42357445 404.01140213 C188.26542379 404.19323248 168.46523046 395.30343949 150.8125 378.6875 C135.97286881 363.25237799 127.48483222 342.06932205 127.61523438 320.70996094 C127.60717522 319.06339256 127.60717522 319.06339256 127.59895325 317.38356018 C127.58923945 315.02164203 127.58621152 312.65968847 127.58930969 310.29775238 C127.59382717 306.54527566 127.57967534 302.79326082 127.56091309 299.04083252 C127.52429508 291.06889466 127.51030467 283.09700221 127.5 275.125 C127.4880504 265.89213943 127.46607078 256.65947609 127.41999817 247.42670441 C127.40655636 243.75554641 127.41057551 240.08468557 127.41540527 236.41351318 C127.34831544 208.2389943 121.45441736 182.54617511 101.390625 161.60546875 C92.61330622 153.41617296 82.7173494 147.59778769 72 142.375 C70.96488281 141.86710937 69.92976563 141.35921875 68.86328125 140.8359375 C56.02604965 135.62290006 43.10675066 135.94697823 29.49609375 136.01171875 C27.32381694 136.01223855 25.15153966 136.01171623 22.97926331 136.01020813 C18.44647109 136.01029739 13.91385843 136.02063334 9.38110352 136.03881836 C3.59932924 136.06151713 -2.18218361 136.06204201 -7.96399021 136.05530071 C-12.4432351 136.05194412 -16.92242145 136.05862234 -21.4016552 136.06842995 C-23.53249746 136.07225209 -25.66334627 136.0734427 -27.79419136 136.0718441 C-53.0600819 136.06867363 -74.09819906 140.6259596 -94 157.375 C-94.57878906 157.80941406 -95.15757812 158.24382812 -95.75390625 158.69140625 C-111.99957989 171.31855397 -122.38234045 194.33170462 -125 214.375 C-125.15576194 218.0877842 -125.16428509 221.79847302 -125.17358398 225.51416016 C-125.180271 226.62717499 -125.18695801 227.74018982 -125.19384766 228.88693237 C-125.20787403 231.29971865 -125.21977572 233.71251801 -125.22979546 236.12532425 C-125.2462557 239.95171082 -125.26949753 243.77800116 -125.29469299 247.6043396 C-125.36531746 258.48243395 -125.42548964 269.36056734 -125.47680664 280.23876953 C-125.50830435 286.8982477 -125.5500307 293.55760195 -125.59700203 300.21699142 C-125.61294911 302.74694188 -125.62530404 305.27691776 -125.63390923 307.80690384 C-125.6461585 311.35787325 -125.67034918 314.90858626 -125.69702148 318.45947266 C-125.69761063 319.49158875 -125.69819977 320.52370483 -125.69880676 321.58709717 C-125.80467486 332.3050077 -127.35324931 342.16860045 -131.6875 352 C-132.04271729 352.81976318 -132.39793457 353.63952637 -132.76391602 354.48413086 C-135.52136377 360.66949116 -138.63714026 366.16561523 -143 371.375 C-144.01513672 372.6125 -144.01513672 372.6125 -145.05078125 373.875 C-157.66078302 388.56800384 -175.57530231 400.18051157 -195 403.375 C-197.57865254 403.4748343 -200.13065372 403.52710258 -202.70915222 403.52890015 C-203.47816008 403.5332824 -204.24716795 403.53766465 -205.03947908 403.5421797 C-207.61250359 403.55551841 -210.18549388 403.56173542 -212.75854492 403.56787109 C-214.60510409 403.57577589 -216.45166174 403.58404508 -218.29821777 403.59265137 C-224.35895319 403.61882585 -230.41969535 403.63417359 -236.48046875 403.6484375 C-238.56944597 403.6537989 -240.65842315 403.65917641 -242.74740028 403.66456985 C-251.43831249 403.68619109 -260.12922287 403.70492706 -268.82015514 403.71619225 C-281.26263626 403.73242822 -293.70480498 403.76560633 -306.14716834 403.82259309 C-314.90319164 403.86132526 -323.65913149 403.88082878 -332.4152382 403.88611281 C-337.64146641 403.88976149 -342.86736107 403.90173184 -348.09349632 403.93421555 C-353.0126572 403.96435405 -357.93128368 403.97058734 -362.85051727 403.95883179 C-364.65079303 403.95861154 -366.45109401 403.96687569 -368.25128365 403.98448563 C-380.62415119 404.09888306 -390.05348835 402.71904721 -399.47265625 394.03125 C-406.86912326 386.01052874 -409.71637018 376.48832453 -409.40234375 365.7109375 C-407.42497623 349.31606506 -393.38131584 338.6067652 -382.35028076 327.58483887 C-381.08525826 326.31722738 -379.82044877 325.04940327 -378.55583215 323.78138685 C-375.10321888 320.32076354 -371.64752887 316.86322739 -368.19127917 313.40623641 C-364.45524237 309.66833863 -360.72205386 305.92759784 -356.9884491 302.18727112 C-348.83617867 294.0214617 -340.68017074 285.85939225 -332.52333355 277.69814491 C-327.42583228 272.5978749 -322.3290663 267.49687054 -317.2324295 262.39573669 C-303.10702886 248.25815144 -288.98068748 234.12150768 -274.8508873 219.9883194 C-273.94791704 219.08512957 -273.04494678 218.18193975 -272.11461379 217.25138053 C-271.20955863 216.34610709 -270.30450346 215.44083366 -269.37202239 214.50812769 C-267.5382152 212.67387704 -265.70440956 210.83962484 -263.87060547 209.00537109 C-262.96098628 208.09553048 -262.0513671 207.18568986 -261.11418369 206.24827832 C-246.37114542 191.50129089 -231.63487553 176.74755976 -216.90150651 161.99091262 C-201.75672544 146.8223975 -186.60630487 131.65953426 -171.45023465 116.50229883 C-162.94798789 107.99913671 -154.44815843 99.49358951 -145.9545517 90.98179626 C-138.72395682 83.73577302 -131.48820723 76.49494668 -124.24577323 69.2607559 C-120.55430807 65.57318689 -116.86526788 61.88327783 -113.18279839 58.18672371 C-109.80514426 54.79626956 -106.42050825 51.41294549 -103.03041473 48.03493077 C-101.81182971 46.81829214 -100.59572168 45.59916581 -99.3825036 44.37717527 C-81.07196209 25.94275196 -60.25798665 12.06884671 -35.25 4.5625 C-34.6017627 4.3675293 -33.95352539 4.17255859 -33.28564453 3.97167969 C-22.2794903 0.85843975 -11.40802558 -0.01626384 0 0 Z " fill="#FEFEFE" transform="translate(780,897.625)"/>
<path d="M0 0 C10.52338031 5.49922139 18.92397666 15.90166415 27.265625 24.25018311 C28.53736128 25.51933043 29.80931018 26.78826471 31.08145142 28.05700612 C34.55347646 31.5210208 38.02241405 34.98811255 41.49080658 38.45576382 C45.24097438 42.20407069 48.99398521 45.94952927 52.74658203 49.69540405 C60.93925022 57.87453301 69.12817822 66.0573997 77.31628418 74.24109554 C82.43330515 79.3553478 87.55106047 84.46886476 92.66894531 89.5822525 C106.85285372 103.75397627 121.03582062 117.9266408 135.21533203 132.10276413 C136.57456819 133.46167094 136.57456819 133.46167094 137.96126366 134.8480304 C138.86951204 135.75606051 139.77776043 136.66409062 140.71353149 137.59963679 C142.55381111 139.43947295 144.39409228 141.27930756 146.234375 143.11914062 C147.14720623 144.03175043 148.06003746 144.94436023 149.00053024 145.88462487 C163.7960166 160.67616207 178.59824671 175.46093092 193.40339279 190.24279889 C208.62162835 205.43730062 223.83421226 220.63744166 239.04116821 235.84323239 C247.57227599 244.3734248 256.10576906 252.90119981 264.64550781 261.42275238 C271.91531947 268.67713595 279.17993465 275.93667394 286.43791389 283.20289657 C290.13763439 286.90651332 293.83969544 290.6077049 297.54840088 294.3023262 C300.94995718 297.69108309 304.34438452 301.08682122 307.73350143 304.48801747 C308.95417766 305.7106402 310.17734193 306.93078557 311.4033699 308.14804158 C321.20433825 317.88336639 330.54356412 328.11399166 337.125 340.375 C337.48819336 341.04039795 337.85138672 341.7057959 338.22558594 342.39135742 C348.89686207 362.28660033 354.61881627 382.05702127 354.67773438 404.73803711 C354.68734079 406.96312302 354.71837503 409.18724334 354.75 411.41210938 C354.85565227 425.38021225 352.78725463 438.37805707 347.8125 451.5 C347.46622559 452.42675537 347.11995117 453.35351074 346.76318359 454.30834961 C337.25277196 479.05882356 321.22174156 496.91763078 302.71185303 515.45550537 C301.43859 516.73422673 300.16553061 518.01315089 298.89265561 519.2922585 C295.41723924 522.78340246 291.93876006 526.27148015 288.45969319 529.75898576 C285.47062216 532.75610382 282.48337264 535.75503417 279.49612466 538.7539691 C268.80996766 549.48185182 258.11662378 560.20255848 247.421875 570.921875 C246.57743525 571.76828965 245.73299549 572.61470431 244.86296666 573.48676789 C228.08107751 590.30782106 211.29643539 607.1261251 194.50608444 623.93873215 C190.82188769 627.62789767 187.13772879 631.317101 183.45361328 635.00634766 C182.53801287 635.92321874 181.62241245 636.84008983 180.67906657 637.78474489 C165.83343965 652.65175168 151.00169103 667.53252652 136.1753957 682.41880938 C120.93858605 697.71675691 105.68856736 713.00143843 90.42580056 728.27348924 C81.86236253 736.84283397 73.30492249 745.41798926 64.76244354 754.00823212 C57.49166418 761.31962977 50.20911114 768.61903561 42.91093364 775.9030892 C39.19000661 779.61755525 35.47494009 783.33741721 31.77504921 787.07284737 C28.38371368 790.49649535 24.97641819 793.90339275 21.55605033 797.29802921 C20.32588439 798.52456085 19.10153723 799.75696439 17.88391325 800.99594781 C9.81730209 809.19539411 1.29027357 816.85426953 -10.69140625 818.32421875 C-22.09572626 818.07770899 -31.48820488 815.47749638 -39.87890625 807.453125 C-46.1212563 800.44315417 -48.87155111 793.24911006 -48.82992554 783.84266663 C-48.83445665 783.08449927 -48.83898776 782.32633192 -48.84365618 781.5451898 C-48.85627672 779.01452026 -48.8546813 776.48406659 -48.85302734 773.95336914 C-48.85901437 772.13447799 -48.86582032 770.31558938 -48.87338257 768.4967041 C-48.89103968 763.56024565 -48.89573805 758.62385656 -48.89701414 753.68736959 C-48.89843734 750.59799879 -48.90271032 747.50864553 -48.90800858 744.4192791 C-48.92651333 733.62578084 -48.9346793 722.83233195 -48.93310547 712.03881836 C-48.93190644 702.00509179 -48.95296068 691.97158117 -48.9845928 681.93790919 C-49.01083121 673.30491859 -49.02146948 664.67199814 -49.02019465 656.03896803 C-49.0196869 650.8914671 -49.02526485 645.74415779 -49.04655075 640.59669685 C-49.06605893 635.7464869 -49.06597242 630.89664871 -49.05151749 626.04642487 C-49.04944325 624.27728921 -49.05404647 622.50812952 -49.0662384 620.73903465 C-49.15637988 606.7394104 -47.52217506 593.88632196 -40.8125 581.3125 C-40.46960938 580.65121094 -40.12671875 579.98992188 -39.7734375 579.30859375 C-29.07036443 559.19150386 -11.69677757 545.05633188 9.70075989 537.39393616 C21.54460212 534.02941086 33.14927814 534.00479692 45.39975548 534.04607964 C49.21481201 534.05885526 53.02916039 534.04728773 56.8441925 534.03004456 C64.25247182 534.00079602 71.66056707 533.99771333 79.06889343 533.99969482 C89.15330362 534.00119159 99.23748533 533.98428288 109.3218174 533.94355965 C113.06017981 533.9337937 116.79819014 533.94239845 120.5365448 533.95225525 C136.71077308 533.97245007 136.71077308 533.97245007 152.4375 530.5625 C153.46409225 530.26222397 154.49068451 529.96194794 155.54838562 529.65257263 C167.35566457 526.14343747 178.11782143 520.61610903 187.4375 512.5625 C188.16195312 511.99273438 188.88640625 511.42296875 189.6328125 510.8359375 C207.02171861 496.59763458 217.16413229 473.51249426 219.4375 451.5625 C219.78466133 445.02736395 219.71987243 438.47960076 219.703125 431.9375 C219.704476 430.05908152 219.70642014 428.18066339 219.70892334 426.30224609 C219.71185414 422.38570797 219.70764331 418.46926173 219.69824219 414.55273438 C219.68684895 409.56697268 219.69341946 404.58142643 219.70538712 399.59567261 C219.71266127 395.72288429 219.71029245 391.85014589 219.70513153 387.97735596 C219.70381035 386.14040094 219.70538814 384.30344118 219.71009064 382.4664917 C219.73040354 372.30501218 219.41673987 362.5738837 217.4375 352.5625 C217.15051239 351.04088257 217.15051239 351.04088257 216.85772705 349.48852539 C214.20830625 336.18121401 206.88701839 323.99133471 198.4375 313.5625 C197.82390625 312.78519531 197.2103125 312.00789063 196.578125 311.20703125 C181.85587249 293.53424466 159.75683666 284.54788233 137.4375 281.5625 C133.5859821 281.30478562 129.75184156 281.27158077 125.89257812 281.27539062 C124.80794785 281.26855759 123.72331757 281.26172455 122.6058197 281.25468445 C120.27336157 281.2411963 117.94087472 281.23207937 115.60838318 281.22697449 C111.90748067 281.21861155 108.2068163 281.19803973 104.50598145 281.17443848 C96.64985675 281.12645418 88.7937082 281.09336235 80.9375 281.0625 C71.82670022 281.02670911 62.7160186 280.98466082 53.60533142 280.92655945 C49.97616955 280.90663389 46.3471004 280.89820166 42.71789551 280.89025879 C40.47273428 280.87727547 38.22757609 280.86375357 35.98242188 280.84960938 C34.98778427 280.85059128 33.99314667 280.85157318 32.96836853 280.85258484 C11.53299304 280.66590374 -6.51691573 272.59217045 -22.5625 258.5625 C-23.59310547 257.67498047 -23.59310547 257.67498047 -24.64453125 256.76953125 C-34.0550518 248.06433571 -40.29152172 236.51267187 -44.5625 224.5625 C-44.91574089 223.57445027 -45.26898178 222.58640055 -45.63292694 221.56840992 C-48.84696347 211.5663455 -49.1325707 202.36913846 -49.08007812 191.94995117 C-49.08551067 190.12014207 -49.09263963 188.29033735 -49.10131836 186.46054077 C-49.11941365 181.5331257 -49.11254345 176.60604898 -49.09980202 171.67862868 C-49.08961001 166.50321715 -49.09908409 161.32783282 -49.10534668 156.15242004 C-49.11260187 147.47013187 -49.10308804 138.78798029 -49.08398438 130.10571289 C-49.06218544 120.08303995 -49.06929754 110.06069216 -49.09129 100.03802699 C-49.10946384 91.4083479 -49.11199364 82.77876643 -49.10153532 74.14907438 C-49.09531572 69.00526017 -49.09442317 63.86159868 -49.10768127 58.71779442 C-49.1192693 53.88551909 -49.11116022 49.05366206 -49.08810425 44.22143173 C-49.08283439 42.4530068 -49.08430129 40.68454641 -49.09315491 38.91613579 C-49.17049453 21.89432602 -49.17049453 21.89432602 -44.5625 14.5625 C-43.89347656 13.36560547 -43.89347656 13.36560547 -43.2109375 12.14453125 C-39.25784428 6.65142932 -34.52249425 3.65068184 -28.5625 0.5625 C-27.94020508 0.21413086 -27.31791016 -0.13423828 -26.67675781 -0.49316406 C-19.60187954 -3.65316743 -7.15322491 -2.50649001 0 0 Z " fill="#FEFEFE" transform="translate(309.5625,373.4375)"/>
<path d="M0 0 C0.75181824 -0.00453111 1.50363649 -0.00906223 2.2782371 -0.01373065 C4.79352537 -0.02637429 7.30859708 -0.02475424 9.82391357 -0.02310181 C11.62956012 -0.02908756 13.4352041 -0.03589322 15.24084473 -0.04345703 C20.146506 -0.0611313 25.05209748 -0.06581335 29.95778751 -0.0670886 C33.02857498 -0.06851132 36.09934479 -0.07278347 39.17012787 -0.07808304 C49.90108868 -0.09659643 60.63199982 -0.10475306 71.36297607 -0.10317993 C81.33359057 -0.10198203 91.30398737 -0.12301184 101.27454686 -0.15466726 C109.85489512 -0.1809285 118.43517279 -0.19154294 127.01556087 -0.19026911 C132.130724 -0.18976185 137.24569417 -0.19531203 142.36081696 -0.21662521 C147.1839348 -0.23617097 152.0066791 -0.23602186 156.8298111 -0.22159195 C158.58681797 -0.21952199 160.34384921 -0.22409457 162.10081482 -0.23631287 C176.42252524 -0.3293435 191.02167478 0.98601606 203.82684326 8.01742554 C204.47910889 8.36031616 205.13137451 8.70320679 205.80340576 9.05648804 C225.06833451 19.44741417 239.58248331 36.01677465 246.67059326 56.84945679 C249.61294763 66.71685234 250.59921473 75.8284378 250.59368896 86.06356812 C250.5989006 87.64351059 250.5989006 87.64351059 250.60421753 89.25537109 C250.61154277 91.53333324 250.61690527 93.81130238 250.62050819 96.08927345 C250.62772404 99.71192182 250.64343124 103.33443865 250.66184998 106.95704651 C250.71406 117.25441618 250.76220214 127.55171362 250.777771 137.84921265 C250.78793602 144.16098458 250.81747614 150.47242376 250.85909081 156.78406334 C250.87128722 159.17145949 250.87654319 161.55890287 250.87429237 163.94632912 C250.85307788 193.80792754 256.57236738 221.46775707 278.29559326 243.33383179 C291.31923394 255.78124084 308.00977092 263.5070762 325.45184326 267.26742554 C326.15978531 267.44336243 326.86772736 267.61929932 327.59712219 267.80056763 C331.51980405 268.44207866 335.36576821 268.42321104 339.33441162 268.42855835 C340.21973572 268.43352325 341.10505981 268.43848816 342.01721191 268.44360352 C344.94204494 268.45818821 347.86682361 268.46502339 350.79168701 268.47055054 C352.836085 268.47630797 354.88048299 268.48206562 356.92488098 268.48782349 C361.21455129 268.49832504 365.50420293 268.50417227 369.79388428 268.50765991 C375.25736036 268.51312238 380.72058443 268.53710574 386.1839819 268.56563187 C390.4111042 268.58437907 394.63816749 268.58947038 398.86532784 268.59099579 C400.87730845 268.59399906 402.88928861 268.6019477 404.90122795 268.61518097 C431.41661769 268.77703789 456.46023582 262.26262908 476.23480225 243.69955444 C497.21274481 222.8892642 503.64839022 196.50213671 503.77960205 167.87373352 C503.78216507 166.70515242 503.78472809 165.53657131 503.78736877 164.33257866 C503.79574097 160.63579695 503.81632036 156.93925258 503.83990479 153.24253845 C503.89597979 144.06712905 503.93144616 134.8916618 503.9675293 125.71615601 C503.99889076 117.94280649 504.03816673 110.1695735 504.08778381 102.39631844 C504.10770543 98.77158604 504.11614029 95.14694646 504.12408447 91.52217102 C504.13706744 89.28027008 504.15058928 87.03837218 504.16473389 84.79647827 C504.16375198 83.80341171 504.16277008 82.81034515 504.16175842 81.78718567 C504.35662219 59.44628622 513.10674356 39.93782455 528.67840576 23.98226929 C547.88979024 5.17675912 569.03348152 0.13064279 595.22137451 0.09042358 C597.0208855 0.08415002 598.82039522 0.07750244 600.61990356 0.07051086 C606.50137449 0.04958781 612.38284534 0.03912483 618.26434326 0.02914429 C620.29515598 0.02509341 622.32596856 0.02097639 624.35678101 0.0167942 C633.89339668 -0.0022255 643.43000474 -0.01646759 652.9666357 -0.02481776 C663.95686459 -0.03460172 674.9468927 -0.06096498 685.93705082 -0.10131866 C694.44770762 -0.13149198 702.95830683 -0.14628748 711.46901608 -0.14959878 C716.54587179 -0.15194626 721.62251218 -0.16086893 726.6993103 -0.18605995 C731.47319471 -0.20936941 736.24672235 -0.21356235 741.02064896 -0.20329857 C742.76812554 -0.20280393 744.5156199 -0.20910301 746.26304245 -0.22285461 C763.1794129 -0.34849231 763.1794129 -0.34849231 770.45184326 4.26742554 C771.33356201 4.80883179 772.21528076 5.35023804 773.12371826 5.90805054 C780.76898652 11.82882219 785.43775983 18.72376865 787.45184326 28.26742554 C788.65108706 37.97837532 786.5839173 47.32170297 780.64102936 55.15893745 C775.54472127 61.61579923 769.6807825 67.32200558 763.86627197 73.12042236 C762.58356474 74.40687078 761.30128917 75.69374973 760.01940584 76.98101914 C756.51137486 80.50123779 752.99716735 84.01523216 749.48185682 87.52817941 C745.6853223 91.32430468 741.89452522 95.1261523 738.10293579 98.92721558 C730.67903547 106.36770405 723.24960922 113.80265073 715.81796867 121.23540746 C709.77421831 127.2801094 703.73205267 133.32639086 697.69099426 139.37378311 C680.54760642 156.53477803 663.40003765 173.69157953 646.24709362 190.84302281 C645.32304967 191.76698684 644.39900573 192.69095087 643.44696045 193.64291382 C642.52178181 194.5680107 641.59660317 195.49310758 640.64338881 196.4462377 C625.65638782 211.43242612 610.67938409 226.42856153 595.70689934 241.42925166 C580.31776263 256.84714867 564.92114714 272.2575424 549.51676035 287.6602031 C540.87476039 296.30154021 532.23584134 304.94590552 523.60496521 313.59835434 C516.25519378 320.96637903 508.89846996 328.32737473 501.53279668 335.67950402 C497.77908082 339.426711 494.0285862 343.17699241 490.28684616 346.93616104 C486.85318453 350.38565054 483.41021025 353.82556538 479.95996934 357.2584696 C478.72158293 358.49380739 477.48647535 359.73244406 476.25524491 360.97491418 C465.20938364 372.11480413 453.24868618 381.92531746 439.20184326 389.07992554 C438.31835205 389.53367554 437.43486084 389.98742554 436.52459717 390.45492554 C417.47130218 399.94587997 397.73258149 403.4783269 376.57684326 403.57992554 C374.91975342 403.58838501 374.91975342 403.58838501 373.22918701 403.59701538 C329.86101485 403.21488842 299.02503046 380.97392166 269.55210876 351.52832031 C268.27267711 350.25362961 266.99304018 348.97914491 265.71321756 347.70484674 C262.22014166 344.22556921 258.73013741 340.74322521 255.24069846 337.26030064 C252.24197465 334.2679818 249.2414252 331.27749696 246.24086096 328.2870238 C236.3671662 318.44651214 226.49924751 308.60021937 216.63293955 298.75230223 C214.0637585 296.18792247 211.49448697 293.6236334 208.92519593 291.05936384 C192.95499117 275.12011442 176.9869282 259.17872134 161.02379894 243.23238564 C157.33358352 239.54611933 153.64334114 235.85988002 149.95306396 232.17367554 C149.03593057 231.2575505 148.11879717 230.34142547 147.17387185 229.39753906 C132.29833524 214.5390298 117.41078283 199.69261925 102.51838108 184.85101564 C87.21665165 169.6010513 71.92626267 154.33978923 56.64676553 139.06754911 C48.07223423 130.49767896 39.49273048 121.93291754 30.90038109 113.38090897 C23.5882685 106.10308692 16.28640566 98.81517608 8.99775269 91.51385643 C5.28014179 87.79041842 1.5578525 84.0719993 -2.17770958 80.3665638 C-5.59970147 76.97194559 -9.00745553 73.56367188 -12.40458485 70.14417808 C-13.6333136 68.9122287 -14.86709835 67.68529622 -16.10648773 66.46407242 C-25.11620318 57.5784225 -32.55850337 48.49856253 -32.86065674 35.26742554 C-32.74166867 24.558499 -29.12041924 15.88414359 -21.54815674 8.26742554 C-14.7388417 2.82464542 -8.79120032 -0.03903362 0 0 Z " fill="#FEFEFE" transform="translate(403.54815673828125,260.7325744628906)"/>
<path d="M0 0 C5.05745019 2.78415187 8.49732714 5.84042056 11.78125 10.578125 C12.36261719 11.40054687 12.94398438 12.22296875 13.54296875 13.0703125 C16.6708648 18.38064484 17.38823096 23.30429634 17.36117554 29.37826538 C17.36570665 30.13164362 17.37023776 30.88502185 17.37490618 31.66122973 C17.38752596 34.17574617 17.38593134 36.69004532 17.38427734 39.20458984 C17.39026447 41.0120064 17.39707044 42.8194204 17.40463257 44.62683105 C17.42228996 49.53236599 17.4269881 54.43783112 17.42826414 59.34339476 C17.42968748 62.4140123 17.43396074 65.48461221 17.43925858 68.55522537 C17.45776435 79.28503796 17.46592929 90.01480089 17.46435547 100.74462891 C17.46315684 110.7158521 17.48420297 120.68685786 17.5158428 130.6580261 C17.54209271 139.23922814 17.55271899 147.82035961 17.55144465 156.40160143 C17.55093718 161.51727669 17.5564993 166.63275906 17.57780075 171.74839401 C17.59732808 176.56988056 17.59720965 181.39099328 17.58276749 186.2124939 C17.58069549 187.96992165 17.58528269 189.72737369 17.5974884 191.48476028 C17.68902347 205.59246164 16.22326785 219.2869375 9.40625 231.953125 C9.0659375 232.60732422 8.725625 233.26152344 8.375 233.93554688 C4.92398354 240.36698664 0.80458356 246.12053577 -3.90625 251.703125 C-4.50695313 252.41726563 -5.10765625 253.13140625 -5.7265625 253.8671875 C-17.95845799 267.15812156 -38.14524588 277.8477344 -56.30682182 278.83341026 C-57.56488231 278.83724441 -57.56488231 278.83724441 -58.84835815 278.84115601 C-59.8180101 278.84660934 -60.78766205 278.85206268 -61.78669739 278.85768127 C-62.83919174 278.8587236 -63.8916861 278.85976593 -64.97607422 278.86083984 C-66.09387772 278.86592056 -67.21168121 278.87100128 -68.36335754 278.87623596 C-70.79034519 278.88693074 -73.21734265 278.89555441 -75.64434433 278.90235519 C-79.49668209 278.91417215 -83.34890915 278.93363545 -87.20120239 278.95547485 C-98.1546045 279.01697489 -109.10799635 279.07122161 -120.06152344 279.10449219 C-126.76529068 279.12494306 -133.46883095 279.16094209 -140.17248917 279.20524979 C-142.7167028 279.2193305 -145.26095189 279.22811413 -147.80520248 279.23130417 C-177.63302371 279.27263987 -204.04974402 284.76317293 -225.90234375 306.4765625 C-241.86497115 323.16917255 -251.00432513 345.37058327 -251.08325195 368.45800781 C-251.09310875 369.73049377 -251.09310875 369.73049377 -251.10316467 371.02868652 C-251.1227819 373.82120885 -251.13454002 376.61367744 -251.14453125 379.40625 C-251.14860678 380.36904625 -251.1526823 381.3318425 -251.15688133 382.32381439 C-251.17770202 387.42909017 -251.19201589 392.53433947 -251.20141602 397.63964844 C-251.21241732 402.86052261 -251.24675563 408.08096316 -251.28658772 413.30168533 C-251.31300054 417.36001259 -251.3211299 421.41824083 -251.32469749 425.47664642 C-251.32950724 427.39798633 -251.34095612 429.31932355 -251.35973549 431.2405777 C-251.63133812 460.8916316 -243.65953326 485.98354661 -222.859375 507.85546875 C-202.26707639 527.4026695 -175.98370676 532.31099475 -148.62250328 532.21954536 C-144.77403884 532.20676074 -140.92627543 532.21834458 -137.07783508 532.23558044 C-129.60765879 532.26481055 -122.1376652 532.26791192 -114.66744232 532.26593018 C-104.49162655 532.26443265 -94.31603707 532.2813081 -84.14029884 532.32206535 C-80.36698882 532.33183951 -76.59402689 532.32322324 -72.82072449 532.31336975 C-70.49075091 532.31951746 -68.16077918 532.32643036 -65.83081055 532.33422852 C-64.28050644 532.32264961 -64.28050644 532.32264961 -62.69888306 532.31083679 C-41.03674074 532.45947846 -20.90488603 542.80355741 -5.65625 557.76171875 C12.69059724 576.76654833 17.23129099 598.89831902 17.27075195 624.25732422 C17.27702579 626.03388601 17.28367339 627.81044651 17.29066467 629.58700562 C17.31158824 635.39393215 17.32205222 641.20085861 17.33203125 647.0078125 C17.3360824 649.0138157 17.34019943 651.01981876 17.34438133 653.02582169 C17.36340285 662.44817916 17.37764336 671.87052892 17.3859933 681.29290187 C17.39577146 692.14501076 17.42211894 702.99691599 17.46249419 713.84895313 C17.49269353 722.25603271 17.50746557 730.66305398 17.51077431 739.07018673 C17.51311924 744.08339136 17.52200814 749.09637765 17.54723549 754.10952377 C17.57059 758.82596129 17.57471989 763.54203776 17.56447411 768.25851822 C17.56398053 769.98257909 17.57024813 771.70665821 17.58403015 773.43066406 C17.6769507 785.74979949 16.96834273 796.64971168 8.01171875 805.98828125 C-0.52840496 813.62395194 -9.30177043 815.96661259 -20.5390625 816.4921875 C-33.80647942 815.08447569 -43.73136811 804.8827367 -52.55706787 795.92100525 C-53.86810798 794.615894 -55.18067617 793.3123163 -56.49462056 792.01012903 C-60.07377999 788.45422625 -63.63096599 784.87704697 -67.18470597 781.29576457 C-71.03161836 777.42674389 -74.89878536 773.57805708 -78.76338196 769.72671509 C-86.32067987 762.18894027 -93.85919246 754.63264603 -101.39136258 747.06977092 C-110.1726082 738.25404388 -118.97200316 729.45652534 -127.77204457 720.65956742 C-143.95338499 704.48254034 -160.11604495 688.28695037 -176.27008897 672.0826731 C-190.99475218 657.31240899 -205.73300707 642.55584933 -220.48388672 627.81176758 C-221.43090253 626.86517902 -222.37791813 625.91859025 -223.3249335 624.97200125 C-223.79313574 624.50401071 -224.26133797 624.03602017 -224.74372816 623.55384809 C-242.5730551 605.73250278 -260.38939624 587.89823056 -278.19936316 570.05753876 C-284.31965982 563.9273536 -290.44401474 557.80124091 -296.56975555 551.67649651 C-304.04136699 544.20564463 -311.50541915 536.72733108 -318.9602448 529.23972809 C-322.76010687 525.42345545 -326.56296936 521.61031589 -330.37460518 517.80579948 C-333.87070044 514.31601923 -337.35727388 510.81699941 -340.83679035 507.31069119 C-342.09015915 506.05082673 -343.34681144 504.7942175 -344.6072416 503.54141759 C-369.98059114 478.30625738 -385.95322218 445.88520736 -386.23583984 409.71972656 C-386.2302002 408.47674805 -386.22456055 407.23376953 -386.21875 405.953125 C-386.21311035 404.64053711 -386.2074707 403.32794922 -386.20166016 401.97558594 C-386.07681819 391.95114705 -385.42701764 382.41713289 -382.90625 372.703125 C-382.72352539 371.99397949 -382.54080078 371.28483398 -382.35253906 370.55419922 C-373.99705798 339.66361521 -354.06967659 317.72668139 -332.04725647 295.6835022 C-330.78392843 294.41542984 -329.52080492 293.14715369 -328.25786585 291.87869394 C-324.81922363 288.42629082 -321.37754694 284.97692739 -317.93528187 281.52813697 C-314.9755837 278.56202202 -312.01771263 275.59408832 -309.05984933 272.62614377 C-299.33010114 262.86325881 -289.59461262 253.10610912 -279.85748759 243.35058218 C-277.32157373 240.80986477 -274.78574927 238.26905815 -272.24994349 235.72823286 C-256.48044214 219.92777908 -240.70879519 204.12946898 -224.93221378 188.33608437 C-221.28754317 184.68746481 -217.64289966 181.03881818 -213.99829102 177.39013672 C-213.09253114 176.48336848 -212.18677126 175.57660024 -211.25356411 174.64235418 C-196.56075517 159.93251508 -181.88004698 145.21065903 -167.20413811 130.48396082 C-152.11796372 115.34600875 -137.02047995 100.21940924 -121.91202253 85.10369623 C-113.43660521 76.62361993 -104.96628732 68.13858207 -96.50874519 59.64067459 C-89.31225564 52.40987743 -82.10565764 45.18935156 -74.88566525 37.98201878 C-71.20462147 34.30679768 -67.52857855 30.62692018 -63.86555099 26.93373489 C-60.50860345 23.54937588 -57.13795153 20.17930971 -53.75612348 16.81981783 C-52.5390233 15.60593323 -51.3269198 14.38701219 -50.12055803 13.16245516 C-35.42628082 -1.73982298 -20.30957376 -9.22315505 0 0 Z " fill="#FEFEFE" transform="translate(1283.90625,375.296875)"/>
<path d="M0 0 C1.56917008 0.91260295 3.11379677 1.86931431 4.625 2.875 C5.26050781 3.2978125 5.89601563 3.720625 6.55078125 4.15625 C12.54540929 8.72864921 17.25087293 15.75261879 19.625 22.875 C20.53763319 30.82794639 19.44532833 36.45194285 14.625 42.875 C9.88704471 48.55829554 4.92082731 53.32571448 -2.61328125 54.2890625 C-10.55531656 54.61322721 -16.01881273 53.68027758 -22.375 48.875 C-22.99890625 48.42898438 -23.6228125 47.98296875 -24.265625 47.5234375 C-30.82760647 42.41650409 -36.54176656 34.66377967 -37.74609375 26.296875 C-37.98102658 16.8442835 -34.85688678 11.26438261 -28.4375 4.5 C-20.28889201 -3.07518743 -10.34235713 -4.90234053 0 0 Z " fill="#F8F8F8" transform="translate(724.375,818.125)"/>
<path d="M0 0 C6.29229666 5.42148775 12.58031727 11.72540699 13.5859375 20.359375 C13.63621094 21.70322266 13.63621094 21.70322266 13.6875 23.07421875 C13.73648438 23.95207031 13.78546875 24.82992187 13.8359375 25.734375 C12.2664933 35.56096963 5.96991004 42.02438105 -1 48.63671875 C-1.83595703 49.45011719 -2.67191406 50.26351562 -3.53320312 51.1015625 C-5.57358662 53.08364933 -7.62472324 55.05299327 -9.6875 57.01171875 C-12.79601082 55.62597155 -14.94805073 54.01571892 -17.37036133 51.63525391 C-18.07401321 50.94758942 -18.7776651 50.25992493 -19.50263977 49.55142212 C-20.25071396 48.80871063 -20.99878815 48.06599915 -21.76953125 47.30078125 C-22.54310471 46.53623627 -23.31667816 45.77169128 -24.11369324 44.98397827 C-25.74445261 43.36771256 -27.37242641 41.74863213 -28.99780273 40.12695312 C-31.4959235 37.64077576 -34.01208327 35.17385634 -36.52929688 32.70703125 C-38.11052053 31.13526617 -39.69063757 29.56238686 -41.26953125 27.98828125 C-42.02772659 27.24961823 -42.78592194 26.5109552 -43.5670929 25.74990845 C-44.25498398 25.05593964 -44.94287506 24.36197083 -45.65161133 23.64697266 C-46.26353836 23.04011627 -46.87546539 22.43325989 -47.50593567 21.80801392 C-48.6875 20.01171875 -48.6875 20.01171875 -48.47492981 17.90646362 C-47.4400411 15.41627332 -46.01800939 13.9535005 -44.1171875 12.04296875 C-43.385 11.30691406 -42.6528125 10.57085938 -41.8984375 9.8125 C-41.12757813 9.05324219 -40.35671875 8.29398438 -39.5625 7.51171875 C-38.44101562 6.37283203 -38.44101562 6.37283203 -37.296875 5.2109375 C-26.04275812 -5.98435996 -13.81852864 -10.22330098 0 0 Z " fill="#F8F8F8" transform="translate(856.6875,694.98828125)"/>
<path d="M0 0 C3.78171013 2.03630545 7.09528802 4.08475871 9 8 C9.23534378 11.01763028 9.1742084 13.98038766 9 17 C9.59296875 16.67902344 10.1859375 16.35804688 10.796875 16.02734375 C14.10816215 14.48325063 16.37263687 14.57680763 20 15 C24.38487435 16.83591001 27.89387103 19.29740378 30.5 23.3125 C32.1655753 27.40703927 32.93666054 30.68287499 32 35 C28.75621594 42.24530503 22.78488739 47.56540016 17.1875 53 C15.86202148 54.30517578 15.86202148 54.30517578 14.50976562 55.63671875 C12.34655482 57.76485046 10.17663207 59.88561213 8 62 C2.85170256 57.69372744 -1.95752072 53.17688069 -6.68359375 48.4140625 C-7.38396255 47.71227875 -8.08433136 47.010495 -8.80592346 46.28744507 C-11.01883027 44.06898864 -13.22821416 41.84706185 -15.4375 39.625 C-16.94703314 38.11044534 -18.45679657 36.59612015 -19.96679688 35.08203125 C-23.64719702 31.39066901 -27.32471957 27.69645931 -31 24 C-29.45522751 20.75378486 -27.80956503 18.55251967 -25.26171875 15.99609375 C-24.52373047 15.25552734 -23.78574219 14.51496094 -23.02539062 13.75195312 C-21.86813477 12.60629883 -21.86813477 12.60629883 -20.6875 11.4375 C-19.92759766 10.66986328 -19.16769531 9.90222656 -18.38476562 9.11132812 C-17.64291016 8.37205078 -16.90105469 7.63277344 -16.13671875 6.87109375 C-15.46342529 6.20005615 -14.79013184 5.52901855 -14.09643555 4.83764648 C-9.50580664 0.81369589 -6.17270249 -0.75805118 0 0 Z " fill="#F8F8F8" transform="translate(673,856)"/>
<path d="M0 0 C4.57297163 2.12410583 8.09059948 5.28265753 10 10 C10.25926574 13.75935317 10.19211438 16.42365687 9 20 C10.28777344 20.23460937 11.57554687 20.46921875 12.90234375 20.7109375 C18.23603109 21.89620135 22.75160518 24.0908661 27.5625 26.625 C28.38041016 27.04523437 29.19832031 27.46546875 30.04101562 27.8984375 C32.03229391 28.9231889 34.01822321 29.95702706 36 31 C35.09515208 32.15518918 34.1755794 33.29885406 33.25 34.4375 C32.73953125 35.07558594 32.2290625 35.71367188 31.703125 36.37109375 C29.74625364 38.24268861 28.68596821 38.76957101 26 39 C24.15649414 38.37915039 24.15649414 38.37915039 22.28515625 37.34765625 C21.25551758 36.80141602 21.25551758 36.80141602 20.20507812 36.24414062 C19.49802734 35.85419922 18.79097656 35.46425781 18.0625 35.0625 C14.56195841 33.14057112 11.24682264 31.32791621 7.37109375 30.30859375 C3.79273784 31.11761122 3.79273784 31.11761122 -1 38 C3.95 42.95 8.9 47.9 14 53 C12.02 55.31 10.04 57.62 8 60 C3.48597808 60 3.24034949 59.74430386 0.2253418 56.75878906 C-0.49833084 56.05095276 -1.22200348 55.34311646 -1.96760559 54.61383057 C-2.73755356 53.83892273 -3.50750153 53.06401489 -4.30078125 52.265625 C-5.09655075 51.47605408 -5.89232025 50.68648315 -6.71220398 49.87298584 C-8.39233208 48.1999657 -10.06732353 46.52177368 -11.73754883 44.83886719 C-14.30414288 42.25840229 -16.89380367 39.7028185 -19.48632812 37.1484375 C-21.11343148 35.5222852 -22.7391315 33.89472728 -24.36328125 32.265625 C-25.14335037 31.49881409 -25.92341949 30.73200317 -26.72712708 29.94195557 C-27.43503891 29.22151062 -28.14295074 28.50106567 -28.87231445 27.75878906 C-29.50200638 27.12813538 -30.1316983 26.49748169 -30.7804718 25.84771729 C-32 24 -32 24 -31.80187988 21.89474487 C-30.69894647 19.28864704 -29.1079571 17.73642415 -27.10546875 15.7421875 C-26.31462891 14.95199219 -25.52378906 14.16179688 -24.70898438 13.34765625 C-23.87689453 12.53167969 -23.04480469 11.71570313 -22.1875 10.875 C-20.95676758 9.63943359 -20.95676758 9.63943359 -19.70117188 8.37890625 C-13.45610171 2.18955042 -9.11847169 -1.50693124 0 0 Z " fill="#F7F7F7" transform="translate(882,649)"/>
<path d="M0 0 C3.18259851 1.40509099 5.31348466 3.06921342 7.75878906 5.53173828 C8.47923401 6.25233429 9.19967896 6.9729303 9.94195557 7.71536255 C10.70876648 8.49249603 11.47557739 9.26962952 12.265625 10.0703125 C13.05902283 10.86654022 13.85242065 11.66276794 14.66986084 12.48312378 C17.20130703 15.02575948 19.72570803 17.57526348 22.25 20.125 C23.96568617 21.85071753 25.68182662 23.57598355 27.3984375 25.30078125 C31.60424248 29.52863032 35.80428507 33.76213869 40 38 C39.02133662 39.14626322 38.04205413 40.29199788 37.0625 41.4375 C36.51722656 42.07558594 35.97195313 42.71367188 35.41015625 43.37109375 C34.63204305 44.26991149 33.84063472 45.15936528 33 46 C24.52956301 45.49029099 16.35911677 43.36873666 8.125 41.4375 C6.00564372 40.94258214 3.88597253 40.44919862 1.76535034 39.95973206 C-0.14279573 39.51904815 -2.04970629 39.07302458 -3.95654297 38.62670898 C-6.97183935 37.8991558 -6.97183935 37.8991558 -10 38 C-8.9015979 39.05912598 -8.9015979 39.05912598 -7.78100586 40.13964844 C-5.07182935 42.75843916 -2.37914162 45.39365074 0.30883789 48.03417969 C1.47528968 49.17546093 2.64618586 50.31221788 3.8215332 51.44433594 C5.50876271 53.07102745 7.17942172 54.71323723 8.84765625 56.359375 C9.37778824 56.86370056 9.90792023 57.36802612 10.45411682 57.88763428 C11.91040039 59.34277344 11.91040039 59.34277344 14 62 C13.97200311 65.42559256 12.8486549 66.16241913 10.4375 68.75 C9.633125 69.4925 8.82875 70.235 8 71 C4.89148918 69.6142528 2.73944927 68.00400017 0.31713867 65.62353516 C-0.38651321 64.93587067 -1.0901651 64.24820618 -1.81513977 63.53970337 C-2.56321396 62.79699188 -3.31128815 62.0542804 -4.08203125 61.2890625 C-4.85560471 60.52451752 -5.62917816 59.75997253 -6.42619324 58.97225952 C-8.05695261 57.35599381 -9.68492641 55.73691338 -11.31030273 54.11523438 C-13.8084235 51.62905701 -16.32458327 49.16213759 -18.84179688 46.6953125 C-20.42302053 45.12354742 -22.00313757 43.55066811 -23.58203125 41.9765625 C-24.34022659 41.23789948 -25.09842194 40.49923645 -25.8795929 39.7381897 C-26.56748398 39.04422089 -27.25537506 38.35025208 -27.96411133 37.63525391 C-28.57603836 37.02839752 -29.18796539 36.42154114 -29.81843567 35.79629517 C-31 34 -31 34 -30.77787781 31.89291382 C-29.83413904 29.5963884 -28.59975347 28.08908895 -26.9375 26.25 C-26.15934937 25.38906738 -26.15934937 25.38906738 -25.36547852 24.51074219 C-24.91487061 24.01219727 -24.4642627 23.51365234 -24 23 C-14.77292029 24.77861835 -5.61953987 26.86559054 3.5390625 28.96484375 C4.69921875 29.22652344 5.859375 29.48820313 7.0546875 29.7578125 C8.10124512 29.9964502 9.14780273 30.23508789 10.22607422 30.48095703 C13.18494906 31.12261526 13.18494906 31.12261526 17 31 C9.41 23.41 1.82 15.82 -6 8 C-4.21844267 4.43688534 -2.83236991 2.64354525 0 0 Z " fill="#F6F6F6" transform="translate(796,724)"/>
<path d="M0 0 C6.22232753 5.15809496 11.95855554 10.7404939 17.6875 16.4375 C18.62400391 17.35337891 19.56050781 18.26925781 20.52539062 19.21289062 C31.129535 29.75648314 31.129535 29.75648314 32.53125 36.58984375 C32.41896524 45.02523642 29.97697885 50.15699508 24.1875 56.25 C19.26309775 60.85699143 15.09290651 64.13036466 8.125 64.625 C-3.31139941 63.87681378 -11.54213422 52.81684694 -19.0625 45.125 C-20.22520358 43.94721743 -21.38861002 42.77012829 -22.55273438 41.59375 C-25.37665245 38.73709271 -28.19090717 35.87123385 -31 33 C-29.44805246 29.67240077 -27.69378051 27.51419515 -25 25 C-21.074898 26.59299461 -18.65221267 29.14857464 -15.71875 32.15625 C-15.22338745 32.65918579 -14.7280249 33.16212158 -14.21765137 33.68029785 C-12.10701043 35.82352529 -10.00845098 37.97844381 -7.90869141 40.13232422 C-6.37032663 41.70689702 -4.82596919 43.2754147 -3.28125 44.84375 C-2.36408203 45.78412109 -1.44691406 46.72449219 -0.50195312 47.69335938 C2.62705498 50.57810455 4.67747898 51.82749726 8.875 52.375 C12.84487514 51.89861498 14.89536536 50.46959574 18 48 C20.07986196 44.88020706 20.61056534 42.94780472 20.49658203 39.21801758 C18.59861075 30.74059913 8.49071347 23.25474619 2.5625 17.4375 C1.64017578 16.52419922 0.71785156 15.61089844 -0.23242188 14.66992188 C-2.48374065 12.44193283 -4.7396193 10.21878841 -7 8 C-6.02133662 6.85373678 -5.04205413 5.70800212 -4.0625 4.5625 C-3.24458984 3.60537109 -3.24458984 3.60537109 -2.41015625 2.62890625 C-1.63204305 1.73008851 -0.84063472 0.84063472 0 0 Z " fill="#FAFAFA" transform="translate(754,766)"/>
<path d="M0 0 C7.49114791 3.80337602 13.24229848 9.48459696 17 17 C17.55973414 21.58798472 17.42464043 25.09976229 15.4375 29.3125 C11.83544288 33.28399887 8.45239761 35.53039195 3.0625 36.5625 C-4.73076413 35.13108414 -11.15121107 29.00976656 -16 23 C-18.24102772 18.35682493 -19.00789542 14.08292087 -18 9 C-14.0538603 2.22237695 -8.01573678 -1.77059939 0 0 Z " fill="#030303" transform="translate(716,826)"/>
<path d="M0 0 C6.78505161 3.04397864 12.58299621 8.38884049 16 15 C17.08975914 19.94870075 16.6617004 23.65013118 14.4375 28.1875 C11.44876558 31.63603971 8.29488066 34.84625977 5 38 C-0.99500997 33.03805145 -6.46427037 27.6523376 -11.9375 22.125 C-12.81212891 21.24585938 -13.68675781 20.36671875 -14.58789062 19.4609375 C-16.72757048 17.3095654 -18.86486597 15.15588208 -21 13 C-19.34052389 9.43259252 -17.49076176 7.40028574 -14.5 4.8125 C-13.7059375 4.11769531 -12.911875 3.42289063 -12.09375 2.70703125 C-8.30045872 -0.38563347 -4.76961574 -0.83304932 0 0 Z " fill="#040404" transform="translate(843,700)"/>
<path d="M0 0 C3.3125 0.4765625 3.3125 0.4765625 6.25 2.6015625 C8.3125 5.4765625 8.3125 5.4765625 9.0625 8.2890625 C7.91405664 13.16994679 4.77201522 15.9798482 1.3125 19.4765625 C0.1678125 20.7140625 0.1678125 20.7140625 -1 21.9765625 C-2.6875 23.4765625 -2.6875 23.4765625 -4.6875 23.4765625 C-6.30859375 21.8671875 -6.30859375 21.8671875 -8.125 19.7265625 C-8.72183594 19.03046875 -9.31867187 18.334375 -9.93359375 17.6171875 C-11.57831098 15.60982661 -13.14876108 13.56585938 -14.6875 11.4765625 C-13.02075061 9.61993027 -11.33331021 7.79429389 -9.625 5.9765625 C-9.15900391 5.45191406 -8.69300781 4.92726563 -8.21289062 4.38671875 C-5.47437716 1.51779988 -3.97482544 0.51369566 0 0 Z " fill="#040404" transform="translate(685.6875,880.5234375)"/>
<path d="M0 0 C3.18455793 2.0951039 3.87126889 3.49497796 4.8125 7.1875 C3.55603025 13.08324266 -0.57610097 16.12908835 -5 20 C-9.13621084 16.6189962 -12.81316569 13.33409466 -16 9 C-14.71142987 7.68445979 -13.41904109 6.37265903 -12.125 5.0625 C-11.04605469 3.96615234 -11.04605469 3.96615234 -9.9453125 2.84765625 C-6.70000638 -0.23473289 -4.42451659 -0.44245166 0 0 Z " fill="#050505" transform="translate(879,660)"/>
<path d="M0 0 C3.1875 1.1875 3.1875 1.1875 5.1875 2.875 C6.66721791 6.29684767 6.4800788 7.64991591 5.1875 11.1875 C2.71017914 14.07076839 0.01464438 16.65015402 -2.8125 19.1875 C-5.80470268 17.82379701 -8.10276529 16.23841917 -10.5625 14.0625 C-11.17609375 13.52367187 -11.7896875 12.98484375 -12.421875 12.4296875 C-12.88078125 12.01976562 -13.3396875 11.60984375 -13.8125 11.1875 C-11.21109531 5.23199992 -6.6462587 0.32686518 0 0 Z " fill="#080808" transform="translate(668.8125,866.8125)"/>
</svg>
